<svg id="Слой_1" data-name="Слой 1" xmlns="http://www.w3.org/2000/svg" xmlns:xlink="http://www.w3.org/1999/xlink" viewBox="0 0 20.41 20.41"><defs><style>.cls-1{fill:url(#Безымянный_градиент);}.cls-2{fill:#231f20;}</style><linearGradient id="Безымянный_градиент" x1="0.77" y1="10.21" x2="19.64" y2="10.21" gradientUnits="userSpaceOnUse"><stop offset="0" stop-color="#fff"/><stop offset="1" stop-color="#fff"/></linearGradient></defs><path class="cls-1" d="M10.2,19.64a1.23,1.23,0,0,1-.87-.4L6.89,16.8a2.32,2.32,0,0,1-.35.53,2.42,2.42,0,0,1-1.81.85,2.6,2.6,0,0,1-.72-.1,2.39,2.39,0,0,1-1.74-1.93,2.46,2.46,0,0,1,1.24-2.58l.1-.05L1.16,11.07a1.16,1.16,0,0,1,0-1.74L3.82,6.69a.87.87,0,0,1,.6-.25.8.8,0,0,1,.77.63.88.88,0,0,0,.19.34A1.4,1.4,0,0,0,6.47,8a1.72,1.72,0,0,0,.44-.06A1.35,1.35,0,0,0,8,6.71a1.41,1.41,0,0,0-.7-1.44l-.17-.08a.84.84,0,0,1-.63-.59.84.84,0,0,1,.26-.81L8.08,2.42,9.33,1.17a1.16,1.16,0,0,1,1.75,0l2.45,2.45a2.33,2.33,0,0,1,1.75-1.34,2.4,2.4,0,0,1,.46,0A2.45,2.45,0,0,1,17,6.75a.89.89,0,0,1-.24.14l2.45,2.45a1.22,1.22,0,0,1,.39.86,1.18,1.18,0,0,1-.39.86l-2.57,2.58-.13.12A.89.89,0,0,1,16,14a.8.8,0,0,1-.77-.62,1,1,0,0,0-.26-.43,1.41,1.41,0,0,0-1-.49,1.58,1.58,0,0,0-.47.07,1.4,1.4,0,0,0-1,1.18.86.86,0,0,0,0,.16,1.45,1.45,0,0,0,.74,1.32l.16.06a.85.85,0,0,1,.61.59.86.86,0,0,1-.25.81l-.64.64-2,2A1.23,1.23,0,0,1,10.2,19.64Z"/><path class="cls-2" d="M10.2,1.27a.75.75,0,0,1,.52.25l2.59,2.59.07.06a.36.36,0,0,0,.24.1A.3.3,0,0,0,13.9,4a1.86,1.86,0,0,1,1.48-1.26,1.47,1.47,0,0,1,.36,0,2,2,0,0,1,1,3.61,1.24,1.24,0,0,1-.33.15l-.07,0a.29.29,0,0,0-.13.51c.14.17.3.31.45.47L18.9,9.7a.65.65,0,0,1,0,1l-2.57,2.57-.09.09a.42.42,0,0,1-.25.1.31.31,0,0,1-.29-.26,1.44,1.44,0,0,0-.38-.64,1.9,1.9,0,0,0-1.39-.64,2.2,2.2,0,0,0-.61.09A1.89,1.89,0,0,0,12,13.58a3,3,0,0,0,0,.31,2,2,0,0,0,1,1.7,1.53,1.53,0,0,0,.27.11.31.31,0,0,1,.15.57c-.29.3-.58.59-.88.88l-1.73,1.74a.79.79,0,0,1-.53.25.79.79,0,0,1-.52-.25C8.84,18,8,17.2,7.14,16.35l-.09-.09a.41.41,0,0,0-.27-.12c-.12,0-.23.09-.28.27a1.59,1.59,0,0,1-.33.58,1.92,1.92,0,0,1-1.44.69,2.38,2.38,0,0,1-.58-.08,1.87,1.87,0,0,1-1.39-1.54,2,2,0,0,1,1-2L4,13.92c.35-.1.41-.34.16-.6l-.79-.8-1.81-1.8a.66.66,0,0,1,0-1L4,7.17l.11-.11a.45.45,0,0,1,.27-.12c.13,0,.24.09.29.27A1.38,1.38,0,0,0,5,7.74a1.91,1.91,0,0,0,1.47.74A2.37,2.37,0,0,0,7,8.4,1.83,1.83,0,0,0,8.45,6.78a1.92,1.92,0,0,0-.93-1.94,1.48,1.48,0,0,0-.29-.12c-.32-.1-.39-.34-.15-.58L8.92,2.29l.77-.77a.75.75,0,0,1,.51-.25m0-1A1.73,1.73,0,0,0,9,.81l-.51.51-.25.26-.54.53L6.37,3.43A1.3,1.3,0,0,0,7,5.67L7,5.7a.94.94,0,0,1,.46.93.86.86,0,0,1-.7.81,1,1,0,0,1-.3,0,.9.9,0,0,1-.71-.39.46.46,0,0,1-.09-.17,1.32,1.32,0,0,0-1.25-1,1.41,1.41,0,0,0-.93.37l-.14.13L2.5,7.3.82,9a1.65,1.65,0,0,0,0,2.44L1.9,12.51l.72.72.2.2a3,3,0,0,0-1,2.81,2.86,2.86,0,0,0,2.09,2.32,3.24,3.24,0,0,0,.86.12,2.93,2.93,0,0,0,2.18-1L7,17.59l2,2a1.65,1.65,0,0,0,2.46,0l1-1,.76-.77.24-.24.65-.65a1.32,1.32,0,0,0,.37-1.27,1.36,1.36,0,0,0-.94-.95l-.07,0a.93.93,0,0,1-.49-.83v0a.34.34,0,0,0,0-.1.89.89,0,0,1,.67-.79,1.25,1.25,0,0,1,.32-.05.88.88,0,0,1,.67.33.46.46,0,0,1,.14.23,1.29,1.29,0,0,0,1.25,1,1.36,1.36,0,0,0,.88-.33A1.07,1.07,0,0,0,17,14l.4-.4,2.18-2.18a1.67,1.67,0,0,0,0-2.43l-.79-.79L17.59,7a2.92,2.92,0,0,0,1-2.86,3,3,0,0,0-2.88-2.38,2.6,2.6,0,0,0-.56.06,2.9,2.9,0,0,0-1.75,1l-2-2A1.71,1.71,0,0,0,10.2.27Z"/></svg>