<svg id="Слой_1" data-name="Слой 1" xmlns="http://www.w3.org/2000/svg" xmlns:xlink="http://www.w3.org/1999/xlink" viewBox="0 0 20.41 20.41"><defs><style>.cls-1{fill:url(#Безымянный_градиент);}.cls-2{fill:#231f20;}</style><linearGradient id="Безымянный_градиент" x1="1.97" y1="-2.37" x2="16.71" y2="23.91" gradientUnits="userSpaceOnUse"><stop offset="0" stop-color="#fff"/><stop offset="1" stop-color="#fff"/></linearGradient></defs><path class="cls-1" d="M11.22,17.28a.69.69,0,0,1-.51-.19.66.66,0,0,1-.18-.52c0-.31,0-.62,0-.93V15.3a.67.67,0,0,1,.17-.49.77.77,0,0,1,.45-.18h2.67V14H6.58v.66H9.23a.6.6,0,0,1,.64.66v1.34a.58.58,0,0,1-.17.47.64.64,0,0,1-.47.18h-3a.58.58,0,0,1-.46-.18.63.63,0,0,1-.18-.47v-1h-1a.67.67,0,0,1-.5-.19A.61.61,0,0,1,4,15v-2.6H3.29s0,2.07,0,2.58a.72.72,0,0,1-.19.52.69.69,0,0,1-.5.19H1.31a.65.65,0,0,1-.46-.16A.65.65,0,0,1,.64,15q0-2.31,0-4.62a.67.67,0,0,1,.18-.49.64.64,0,0,1,.47-.18h1v-1a.6.6,0,0,1,.64-.66H4v-1a.66.66,0,0,1,.17-.49.64.64,0,0,1,.47-.18h1V5.77H4.65a.7.7,0,0,1-.53-.19A.68.68,0,0,1,4,5.06c0-.42,0-.84,0-1.26a.63.63,0,0,1,.17-.49.65.65,0,0,1,.48-.18H5.94a.62.62,0,0,1,.65.65c0,.33,0,.66,0,1H7.64a.71.71,0,0,1,.44.17.64.64,0,0,1,.16.45v1h3.92c0-.22,0-1,0-1A.57.57,0,0,1,12.32,5a.72.72,0,0,1,.44-.18h1.07v-1a.59.59,0,0,1,.62-.61h1.41a.59.59,0,0,1,.62.61c0,.47,0,.94,0,1.41a.83.83,0,0,1-.17.45.65.65,0,0,1-.46.17h-1V6.4h.92a.67.67,0,0,1,.61.25.72.72,0,0,1,.12.48v.93h1a.63.63,0,0,1,.48.18.65.65,0,0,1,.18.48v1h1a.6.6,0,0,1,.47.18.6.6,0,0,1,.18.46v1.91c0,.9,0,1.79,0,2.68a.74.74,0,0,1-.19.53.7.7,0,0,1-.51.19H17.79a.69.69,0,0,1-.55-.23A.76.76,0,0,1,17.1,15v-2.6h-.63v2.57a.73.73,0,0,1-.19.53.65.65,0,0,1-.5.19h-1c0,.32,0,.64,0,1a.68.68,0,0,1-.18.5.66.66,0,0,1-.5.19H11.22Zm-4-7.59V9.06H6.58v.63Zm6.58,0q0-.31,0-.63h-.66v.63Z"/><path class="cls-2" d="M4.6,3.63H6c.1,0,.14,0,.13.14V5.28H4.63c-.16,0-.19,0-.18-.2,0-.43,0-.85,0-1.28,0-.12,0-.16.15-.16m11.25,0c.08,0,.12,0,.12.11q0,.71,0,1.41c0,.11-.06.12-.14.12h-1.5c0-.51,0-1,0-1.54,0-.09,0-.11.12-.11h1.41M13.69,5.27c.21,0,.43,0,.64,0,0,.5,0,1,0,1.49,0,.09,0,.12.12.12h1.35c.18,0,.18,0,.18.23,0,.43,0,.85,0,1.28,0,.12,0,.15.15.15h1.35c.11,0,.15,0,.15.15,0,.44,0,.88,0,1.32,0,.14,0,.17.17.17h1.37c.1,0,.13,0,.13.13,0,.34,0,.69,0,1,0,1.19,0,2.38,0,3.57,0,.18-.05.22-.2.22h-1.3c-.14,0-.17-.06-.17-.19,0-1,0-1.94,0-2.91,0-.15,0-.19-.18-.19H16.15c-.16,0-.19.06-.19.22,0,.95,0,1.9,0,2.85,0,.15,0,.22-.19.22H14.33c0-.48,0-1,0-1.44,0-.17,0-.22-.21-.22H6.27c-.15,0-.2,0-.19.2,0,.48,0,1,0,1.45H4.61c-.14,0-.17-.05-.16-.19,0-1,0-1.93,0-2.9,0-.16,0-.2-.18-.2H3c-.14,0-.17.05-.17.18,0,1,0,1.94,0,2.91,0,.16,0,.2-.19.2H1.31c-.12,0-.17,0-.17-.16q0-2.31,0-4.62c0-.12,0-.17.15-.17H2.55c.25,0,.25,0,.25-.25,0-.41,0-.83,0-1.24,0-.12,0-.15.15-.15H4.27c.14,0,.19,0,.18-.2,0-.44,0-.87,0-1.3,0-.12,0-.17.14-.17H5.93c.12,0,.16,0,.15-.17V5.28H7.65c.1,0,.09.07.09.13V6.59c0,.31,0,.31.3.31h4.42c.15,0,.22,0,.21-.21,0-.42,0-.85,0-1.28,0-.07,0-.15.09-.15h.93M6.93,8.56H6.2c-.08,0-.12,0-.12.12v1.38c0,.09,0,.13.11.13H7.62c.09,0,.12,0,.12-.14V8.72c0-.11,0-.16-.14-.16H6.93m6.56,0h-.7c-.1,0-.13,0-.13.14,0,.45,0,.91,0,1.37,0,.09,0,.12.12.12H14.2c.08,0,.12,0,.12-.12q0-.69,0-1.38c0-.09,0-.13-.12-.13h-.71M6.08,5.28h0m0,0h0m8.25,0h0m0,0h0m-3.18,9.85h3.17c0,.49,0,1,0,1.46,0,.14,0,.18-.18.18H11.22c-.15,0-.2,0-.19-.2,0-.42,0-.85,0-1.28,0-.09,0-.17.12-.17m-1.91,0c.11,0,.13,0,.13.15v1.36c0,.11,0,.14-.14.14h-3c-.12,0-.14-.05-.14-.15V15.14H9.24m-3.16,0h0m0,0h0m8.25,0h0m0,0h0M4.6,2.63A1.11,1.11,0,0,0,3.45,3.81c0,.41,0,.82,0,1.24a1.17,1.17,0,0,0,.32.88L4,6.08l-.18.15a1.12,1.12,0,0,0-.32.85v.48H3A1.11,1.11,0,0,0,1.79,8.73c0,.15,0,.31,0,.47H1.33a1.15,1.15,0,0,0-.86.33,1.12,1.12,0,0,0-.33.84c0,1.54,0,3.08,0,4.61a1.16,1.16,0,0,0,.33.84,1.16,1.16,0,0,0,.84.33H2.58a1.23,1.23,0,0,0,.89-.34,1,1,0,0,0,.15-.19,1,1,0,0,0,.15.2,1.16,1.16,0,0,0,.84.33h.47v.49a1.16,1.16,0,0,0,.32.84,1.12,1.12,0,0,0,.82.32h3a1.1,1.1,0,0,0,.82-.33,1.06,1.06,0,0,0,.16-.19.86.86,0,0,0,.14.18,1.16,1.16,0,0,0,.87.34h2.91a1.17,1.17,0,0,0,.86-.33,1.21,1.21,0,0,0,.33-.86v-.46h.42a1.18,1.18,0,0,0,.9-.34.79.79,0,0,0,.14-.18,1.39,1.39,0,0,0,.15.19,1.16,1.16,0,0,0,.84.33H19a1.15,1.15,0,0,0,1.24-1.22c0-.89,0-1.78,0-2.67v-1.2c0-.24,0-.48,0-.72A1.09,1.09,0,0,0,20,9.52a1.08,1.08,0,0,0-.81-.33H18.6c0-.16,0-.32,0-.47a1.16,1.16,0,0,0-.32-.84,1.13,1.13,0,0,0-.83-.33H17V7.13a1.15,1.15,0,0,0-.49-1L16.65,6A1.13,1.13,0,0,0,17,5.14c0-.46,0-.93,0-1.39a1.11,1.11,0,0,0-.32-.8,1.07,1.07,0,0,0-.8-.32h-1.4a1.12,1.12,0,0,0-.82.32,1.1,1.1,0,0,0-.31.8v.52h-.54A1.13,1.13,0,0,0,12,4.6a1.06,1.06,0,0,0-.29.83v.48H8.74V5.4a1.09,1.09,0,0,0-.31-.81,1.06,1.06,0,0,0-.78-.32H7.08V3.79A1.09,1.09,0,0,0,6.77,3,1.12,1.12,0,0,0,6,2.63H4.6Zm5.55,11.85h.17a.83.83,0,0,0-.12.16c0-.06-.09-.11-.13-.16Z"/></svg>