<svg id="Слой_1" data-name="Слой 1" xmlns="http://www.w3.org/2000/svg" xmlns:xlink="http://www.w3.org/1999/xlink" viewBox="0 0 20.41 20.41"><defs><style>.cls-1{fill:url(#Безымянный_градиент);}.cls-2{fill:#231f20;}</style><linearGradient id="Безымянный_градиент" x1="1.41" y1="10.11" x2="18.11" y2="10.11" gradientUnits="userSpaceOnUse"><stop offset="0" stop-color="#fff"/><stop offset="1" stop-color="#fff"/></linearGradient></defs><path class="cls-1" d="M9.74,19.64a7.86,7.86,0,0,1-1.88-.22,8.35,8.35,0,0,1-6.38-9.2A8.08,8.08,0,0,1,4.89,4.51,8.17,8.17,0,0,1,9.72,2.94c.3,0,.61,0,.93.05a2.24,2.24,0,0,1,.84-1.93A2.29,2.29,0,0,1,14.06.9a2.25,2.25,0,0,1,.43,3.51,8.27,8.27,0,0,1,3,3.75,8.15,8.15,0,0,1,.09,6A8.35,8.35,0,0,1,9.74,19.64Zm0-13.52a5.17,5.17,0,0,0-1.8,10,5.31,5.31,0,0,0,1.81.32,5.18,5.18,0,0,0,4.83-3.36,5.17,5.17,0,0,0-4.84-7ZM12.9,2.57a.26.26,0,0,0-.25.17.25.25,0,0,0,.15.33h.06a.25.25,0,0,0,.27-.15.3.3,0,0,0,0-.21A.22.22,0,0,0,13,2.58Z"/><path class="cls-2" d="M12.62,3.54a.86.86,0,0,0,.27,0,.74.74,0,0,0,.7-.49.76.76,0,0,0-.43-1,.82.82,0,0,0-.26,0,.76.76,0,0,0-.28,1.47Z"/><path class="cls-2" d="M11.73,6a5.72,5.72,0,0,0-2-.36,5.66,5.66,0,0,0-2,11,5.49,5.49,0,0,0,2,.36,5.66,5.66,0,0,0,2-11ZM5.39,9.64a4.67,4.67,0,0,1,4.36-3,4.53,4.53,0,0,1,1.63.3,4.61,4.61,0,0,1,2,1.42l-.92.08L9.7,8.67a3.06,3.06,0,0,0-1.88.85L5.47,11.8l-.29.28A4.73,4.73,0,0,1,5.39,9.64Zm8.73,3.28a4.68,4.68,0,0,1-4.36,3,4.84,4.84,0,0,1-1.64-.29,4.6,4.6,0,0,1-2-1.43l1-.09,2.7-.25a2.87,2.87,0,0,0,1.75-.8c.65-.61,1.29-1.24,1.93-1.86l.76-.74A4.6,4.6,0,0,1,14.12,12.92Z"/><path class="cls-2" d="M18,8a8.79,8.79,0,0,0-2.74-3.66,2.87,2.87,0,0,0,.39-1A2.76,2.76,0,0,0,12.89.08a2.79,2.79,0,0,0-1.71.59,2.72,2.72,0,0,0-1,1.78H9.72A8.65,8.65,0,0,0,4.6,4.1,8.56,8.56,0,0,0,1,10.15,8.83,8.83,0,0,0,7.74,19.9a8.36,8.36,0,0,0,2,.24,8.85,8.85,0,0,0,8.31-5.78A8.65,8.65,0,0,0,18,8ZM17.11,14a7.91,7.91,0,0,1-7.37,5.12A7.5,7.5,0,0,1,8,18.93a7.84,7.84,0,0,1-6-8.64,7.55,7.55,0,0,1,3.2-5.37A7.63,7.63,0,0,1,9.72,3.44a8.72,8.72,0,0,1,1.59.15,2.67,2.67,0,0,1-.09-.26,1.74,1.74,0,0,1,.58-1.87,1.77,1.77,0,0,1,2-.13,1.74,1.74,0,0,1,.81,1.79,1.69,1.69,0,0,1-.69,1.12.21.21,0,0,1-.12,0l-.1,0A7.16,7.16,0,0,0,12,3.73h-.07A7.78,7.78,0,0,1,17,8.35,7.66,7.66,0,0,1,17.11,14Z"/></svg>