<svg id="Слой_1" data-name="Слой 1" xmlns="http://www.w3.org/2000/svg" viewBox="0 0 20.41 20.41"><defs><style>.cls-1{fill:#fff;}.cls-2{fill:#231f20;}</style></defs><path class="cls-1" d="M9.88,19.63H9.82a9.25,9.25,0,0,1-4.17-1.21A9.4,9.4,0,0,1,.88,11,9.56,9.56,0,0,1,2,5.73,9.46,9.46,0,0,1,9.5.82c.25,0,.51,0,.76,0a8.71,8.71,0,0,1,1,0,9.26,9.26,0,0,1,3.45,1.07,9.49,9.49,0,0,1,3,2.53.64.64,0,0,1,.16.5.6.6,0,0,1-.29.43L11,10.2l7,4.71.1.27a.57.57,0,0,1-.12.46,9.34,9.34,0,0,1-4.14,3.29,8.94,8.94,0,0,1-2.44.63l-.48.05-.21,0Z"/><path class="cls-2" d="M10.26,1.28a7.73,7.73,0,0,1,1,.06,8.72,8.72,0,0,1,3.27,1,8.88,8.88,0,0,1,2.84,2.4c.1.12.1.12,0,.22l-3,2.21-3.95,2.89-.2.14.39.27,2.34,1.57,3.39,2.29,1.3.87c.06,0,.07.08,0,.14a8.94,8.94,0,0,1-6.23,3.72l-.65.06H9.82A7.91,7.91,0,0,1,8.73,19,8.64,8.64,0,0,1,5.9,18a8.94,8.94,0,0,1-4.52-7,8.6,8.6,0,0,1,.08-2.09A9,9,0,0,1,6.3,2.22a9,9,0,0,1,3.24-.9,5.79,5.79,0,0,1,.72,0m0-1h0c-.27,0-.54,0-.8,0A9.93,9.93,0,0,0,1.55,5.49,9.93,9.93,0,0,0,.47,8.69,9.53,9.53,0,0,0,.39,11a9.9,9.9,0,0,0,5,7.84A10.07,10.07,0,0,0,8.55,20a10.29,10.29,0,0,0,1.23.14h1l.2,0,.48-.05A9.7,9.7,0,0,0,14,19.39a9.9,9.9,0,0,0,4.35-3.46,1.07,1.07,0,0,0,.2-.84,1.09,1.09,0,0,0-.48-.71L17,13.66l-.22-.15-1.15-.77-2.24-1.52-1.55-1,3-2.19L16,7.13l1.86-1.36a1.08,1.08,0,0,0,.5-.76,1.1,1.1,0,0,0-.27-.87A9.94,9.94,0,0,0,11.33.34,9.73,9.73,0,0,0,10.26.28Z"/><path class="cls-1" d="M17.27,12.24A2.28,2.28,0,1,1,19.56,10a2.29,2.29,0,0,1-2.29,2.27Z"/><path class="cls-2" d="M17.28,8.18h0a1.78,1.78,0,0,1,0,3.56h0a1.78,1.78,0,0,1,0-3.56m0-1h0a2.78,2.78,0,1,0,2,.82,2.74,2.74,0,0,0-2-.82Z"/></svg>