<svg id="Слой_1" data-name="Слой 1" xmlns="http://www.w3.org/2000/svg" viewBox="0 0 20.41 20.41"><path d="M10.35,20.41A10.21,10.21,0,1,1,20.41,10,10.24,10.24,0,0,1,10.35,20.41ZM.89,10.21A9.32,9.32,0,1,0,10.23.89,9.33,9.33,0,0,0,.89,10.21Z"/><path d="M18.19,10.21a8,8,0,1,1-8.09-8A8,8,0,0,1,18.19,10.21ZM4.93,11.53H6.14a2.67,2.67,0,0,1,2.73,2.68V17c0,.11,0,.16.14.18a7.25,7.25,0,0,0,2.37,0c.12,0,.16-.06.16-.18,0-.9,0-1.8,0-2.7a2.61,2.61,0,0,1,.27-1.26,2.64,2.64,0,0,1,2.47-1.53H17a.15.15,0,0,0,.17-.14,7,7,0,0,0,.05-1.94c0-.11,0-.14-.15-.15A7,7,0,0,1,14,8.55c-.59-.3-1.15-.67-1.75-1A4.5,4.5,0,0,0,8.6,7.4a8.42,8.42,0,0,0-1.42.76,7.59,7.59,0,0,1-3.9,1.16c-.09,0-.12,0-.13.11a7.14,7.14,0,0,0,.05,2c0,.12.07.15.19.15ZM10.12,3.1A6.33,6.33,0,0,0,9,3.22a7,7,0,0,0-5.59,5c0,.12,0,.15.11.15a6.14,6.14,0,0,0,2.62-.68c.57-.3,1.1-.66,1.68-1a5.31,5.31,0,0,1,4.51-.16,13.94,13.94,0,0,1,1.71.9,6.22,6.22,0,0,0,2.9.88c.17,0,.17,0,.12-.15A7.14,7.14,0,0,0,10.12,3.1ZM5,12.43H3.6c-.12,0-.13,0-.09.14A7,7,0,0,0,7.85,16.9c.1,0,.14,0,.14-.09,0-.88,0-1.77,0-2.65a1.67,1.67,0,0,0-1.74-1.73Zm7.46,3h0c0,.46,0,.91,0,1.36,0,.12,0,.13.14.09a7,7,0,0,0,4.34-4.34c0-.1,0-.14-.09-.14H14.2a1.79,1.79,0,0,0-1.77,1.77C12.42,14.62,12.43,15,12.43,15.45Z"/><path d="M8,10.2A2.21,2.21,0,0,1,10.23,8,2.22,2.22,0,1,1,8,10.2Zm2.19,1.33a1.31,1.31,0,0,0,1.35-1.3,1.33,1.33,0,0,0-1.31-1.36,1.34,1.34,0,0,0-1.35,1.32A1.33,1.33,0,0,0,10.18,11.53Z"/></svg>