<svg id="Слой_1" data-name="Слой 1" xmlns="http://www.w3.org/2000/svg" xmlns:xlink="http://www.w3.org/1999/xlink" viewBox="0 0 20.41 20.41"><defs><style>.cls-1{fill:url(#Безымянный_градиент);}.cls-2{fill:#231f20;}</style><linearGradient id="Безымянный_градиент" x1="7.96" y1="-2.54" x2="13.67" y2="24.74" gradientUnits="userSpaceOnUse"><stop offset="0" stop-color="#fff"/><stop offset="1" stop-color="#fff"/></linearGradient></defs><path class="cls-1" d="M10.64,19.91a7.27,7.27,0,0,1-7.35-6.53A7.17,7.17,0,0,1,9,5.79H8.66a4.93,4.93,0,0,1-2.5-.7c0,.18-.08.35-.13.52a.77.77,0,0,1-.76.63H5.1a.77.77,0,0,1-.6-1,.17.17,0,0,1,0-.07l-.12.08a1,1,0,0,1-.62.25A.81.81,0,0,1,3,4.65,1,1,0,0,1,3.43,4l.49-.36-.48-.14a1,1,0,0,1-.59-.44.77.77,0,0,1,0-.6A.74.74,0,0,1,3.56,2a1.13,1.13,0,0,1,.3,0l.43.12h0l-.15-.34A.79.79,0,0,1,4.51.63.82.82,0,0,1,4.84.56a.84.84,0,0,1,.76.56l.05.11A.87.87,0,0,1,6.43.56a.86.86,0,0,1,.27,0A.74.74,0,0,1,7.16,1a1,1,0,0,1,0,.77A1.07,1.07,0,0,0,7.07,2l.34-.13a1.14,1.14,0,0,1,.4-.08.75.75,0,0,1,.78.89A.86.86,0,0,1,8,3.32l-.17.07a2.42,2.42,0,0,0,.76.12l.36,0A9.31,9.31,0,0,0,11,2.9l.69-.25a7.09,7.09,0,0,1,2.17-.42,3.87,3.87,0,0,1,1.51.29,3.29,3.29,0,0,1,2.29,3.19,3.59,3.59,0,0,1-.8,2.11c.74,1.06.81,1.45,0,2.2h0a.92.92,0,0,1,.35.54,6.91,6.91,0,0,1-.48,5.56,6.93,6.93,0,0,1-6,3.79ZM10.39,5.65A7.3,7.3,0,0,1,12.64,6a.85.85,0,0,1,.52.35,1.56,1.56,0,0,1,1.05-.58,1.69,1.69,0,0,1,1,.48,1.08,1.08,0,0,0,.14-.91,1.35,1.35,0,0,0-1-.65,3.46,3.46,0,0,0-.78-.09,3.14,3.14,0,0,0-1.16.22,15.37,15.37,0,0,1-2.61.84Z"/><path class="cls-2" d="M4.84,1.06c.15,0,.24.13.31.28a7.83,7.83,0,0,0,.54,1.15c.15-.39.29-.73.42-1.08.07-.18.14-.35.32-.35l.11,0c.26.09.21.31.13.51-.14.37-.27.74-.45,1.23.52-.2.94-.37,1.36-.52a.74.74,0,0,1,.23,0,.26.26,0,0,1,.29.31c0,.2-.2.25-.35.31l-1.13.44A3.13,3.13,0,0,0,8.56,4,3,3,0,0,0,9,4a13.88,13.88,0,0,0,2.84-.85,6.19,6.19,0,0,1,2-.4A3.52,3.52,0,0,1,15.16,3a2.83,2.83,0,0,1,2,2.71,3.18,3.18,0,0,1-.74,1.86.37.37,0,0,0,0,.53c.88,1.23.55,1.06-.35,2a.33.33,0,0,1-.24.1.62.62,0,0,1-.29-.09,5.71,5.71,0,0,1-2.4-2.37A.54.54,0,0,1,13.27,7a1.37,1.37,0,0,0,.17-.17c.34-.34.55-.51.77-.51a1.35,1.35,0,0,1,.76.41.58.58,0,0,0,.33.16c.13,0,.23-.11.34-.3.63-1.07.18-2-1.13-2.33a3.47,3.47,0,0,0-.9-.11,3.51,3.51,0,0,0-1.34.26,12.66,12.66,0,0,1-3.12.9l-.49,0a4.5,4.5,0,0,1-2.42-.74,1,1,0,0,0-.36-.18c-.09,0-.12.13-.18.44s-.09.45-.15.67-.13.26-.28.26H5.2C5,5.71,5,5.54,5,5.37c.07-.4.16-.79.24-1.19l-.09,0-1,.76A.56.56,0,0,1,3.77,5a.25.25,0,0,1-.21-.12c-.18-.22,0-.37.17-.5.34-.25.68-.49,1-.75.06,0,.14-.11.15-.17s-.14-.11-.22-.14L3.59,3c-.19-.06-.38-.15-.3-.4a.25.25,0,0,1,.27-.19l.17,0,.79.22a1.88,1.88,0,0,0,.42.14.15.15,0,0,0,.11,0c.14-.16-.09-.36-.16-.54s-.2-.45-.29-.67-.12-.39.11-.49l.13,0m5.55,5.09a6.64,6.64,0,0,1,2.1.34c.24.07.38.15.13.39a.61.61,0,0,0-.1.72,5.53,5.53,0,0,0,3.1,3.07.88.88,0,0,0,.32.07.47.47,0,0,0,.36-.15c.1-.11.17-.15.22-.15s.15.17.19.3a6.41,6.41,0,0,1-.45,5.14,6.45,6.45,0,0,1-5.6,3.53h0a6.72,6.72,0,0,1-6.85-6.07A6.68,6.68,0,0,1,9.15,6.27a6.51,6.51,0,0,1,1.24-.12M5.5,12.93h.21c.4,0,.4,0,.44-.44A4.24,4.24,0,0,1,10,8.55c.41-.06.45-.15.4-.69,0-.2-.12-.25-.22-.25a2.33,2.33,0,0,0-.28,0,5.13,5.13,0,0,0-4.66,4.8c0,.31,0,.47.25.47M4.84.06h0a1.39,1.39,0,0,0-.52.11,1.24,1.24,0,0,0-.78,1.28,1.24,1.24,0,0,0-1.2.88,1.27,1.27,0,0,0,.07,1,1.25,1.25,0,0,0,.48.51,1.41,1.41,0,0,0-.4.77,1.29,1.29,0,0,0,.28,1,1.26,1.26,0,0,0,1,.5,1,1,0,0,0,.31,0A1.26,1.26,0,0,0,5,6.73a1.18,1.18,0,0,0,.26,0,1.26,1.26,0,0,0,1.22-.92A3.61,3.61,0,0,0,6.91,6a7.66,7.66,0,0,0-4.12,7.44,7.77,7.77,0,0,0,7.85,7h.07a7.5,7.5,0,0,0,6.42-4.05,7.38,7.38,0,0,0,.54-5.92,3,3,0,0,0-.17-.4c.62-.73.5-1.35-.06-2.21a4.06,4.06,0,0,0,.69-2.09,3.79,3.79,0,0,0-2.6-3.69,4.67,4.67,0,0,0-1.7-.32,7.3,7.3,0,0,0-2.33.45l-.7.25A9.74,9.74,0,0,1,9,3a1.22,1.22,0,0,0,.06-.26,1.24,1.24,0,0,0-.28-1,1.28,1.28,0,0,0-1-.44H7.73A1.18,1.18,0,0,0,7.62.79,1.31,1.31,0,0,0,6.86.13,1.61,1.61,0,0,0,6.43.06a1.16,1.16,0,0,0-.79.29,1.25,1.25,0,0,0-.8-.29Zm7.51,5.35.28-.11a2.63,2.63,0,0,1,1-.19,2.48,2.48,0,0,1,.66.08,1.37,1.37,0,0,1,.46.18,1.46,1.46,0,0,0-.52-.09,1.62,1.62,0,0,0-1.05.41,2.24,2.24,0,0,0-.36-.16l-.45-.12Z"/></svg>